<svg viewBox="174.08 176.128 684.032 655.36" xmlns="http://www.w3.org/2000/svg" style="max-height: 500px" width="684.032" height="655.36">
<g>
<path fill="rgb(18,59,101)" d="M 344.38 583.23 C340.60,593.54 337.20,601.97 336.84,601.98 C334.52,602.04 316.76,572.22 309.57,556.21 C302.11,539.58 295.21,517.94 291.49,499.51 C286.59,475.21 286.68,477.49 286.28,355.39 L 285.91 240.29 L 290.70 238.25 C325.84,223.35 380.02,210.72 435.38,204.51 C495.52,197.77 575.00,200.22 633.50,210.61 C670.03,217.10 713.02,228.74 734.25,237.88 L 739.00 239.93 L 739.00 344.26 C739.00,406.71 738.59,454.00 737.97,462.05 C734.80,503.24 723.72,542.26 706.31,573.50 C699.72,585.31 688.94,602.00 687.88,602.00 C687.48,602.00 686.25,599.64 685.17,596.75 C684.08,593.86 676.17,572.88 667.60,550.13 C659.02,527.37 652.00,508.62 652.00,508.46 C652.00,507.90 641.85,504.79 634.66,503.14 L 627.50 501.49 L 624.22 491.36 L 620.93 481.23 L 612.22 480.59 C607.42,480.24 600.87,479.69 597.65,479.37 L 591.81 478.78 L 595.65 475.73 C608.30,465.70 622.02,447.70 628.02,433.29 C631.12,425.86 635.71,407.37 634.71,406.37 C634.42,406.09 631.11,406.76 627.35,407.86 C617.75,410.66 603.21,412.77 580.24,414.71 C555.49,416.79 474.51,417.07 451.50,415.16 C421.54,412.67 402.05,409.72 394.40,406.52 C392.41,405.69 390.38,405.26 389.89,405.57 C387.42,407.09 393.53,428.33 400.06,440.93 C405.94,452.27 414.75,463.40 424.75,472.12 C428.74,475.59 432.00,478.79 432.00,479.22 C432.00,479.65 428.06,480.04 423.25,480.10 C418.44,480.15 412.02,480.49 409.00,480.85 L 403.50 481.50 L 396.50 501.42 L 385.17 504.59 C378.95,506.33 373.47,508.14 373.00,508.63 C372.53,509.11 369.16,517.38 365.50,527.00 C361.85,536.62 357.15,549.00 355.06,554.50 C352.97,560.00 348.16,572.93 344.38,583.23 ZM 529.50 724.36 C522.35,727.40 515.38,730.13 514.00,730.43 C509.21,731.47 474.76,715.93 450.14,701.62 C409.49,677.99 376.12,651.16 351.56,622.38 L 344.86 614.53 L 347.68 613.83 C352.37,612.67 374.63,610.11 389.50,609.03 C417.18,607.01 444.40,608.21 469.78,612.57 C483.70,614.96 484.19,615.13 489.43,619.40 C503.13,630.55 522.72,630.29 535.62,618.76 C538.91,615.82 540.86,615.05 548.50,613.64 C572.46,609.23 596.41,607.51 622.00,608.37 C644.30,609.12 676.96,612.63 678.80,614.46 C679.62,615.29 662.30,634.49 650.81,645.50 C618.75,676.22 573.31,705.76 529.50,724.36 ZM 427.00 306.25 C427.00,306.32 427.00,306.39 427.00,306.46 C426.99,306.79 426.99,307.06 427.10,307.27 C427.60,308.25 430.46,308.01 446.37,306.69 L 448.54 306.51 C470.22,304.72 473.06,304.30 479.57,301.88 C488.16,298.68 492.33,292.80 492.33,283.88 C492.33,274.73 487.53,268.29 478.67,265.57 C477.07,265.07 477.25,264.66 480.06,262.30 C484.06,258.93 486.00,254.42 486.00,248.47 C486.00,243.32 484.97,240.81 481.13,236.65 C475.43,230.47 469.58,229.72 442.79,231.74 L 421.07 233.38 L 421.56 238.94 C422.96,254.74 427.00,304.73 427.00,306.25 ZM 522.56 401.87 L 515.50 409.23 L 543.00 408.57 C558.12,408.20 571.49,407.66 572.71,407.35 C574.42,406.93 577.72,401.31 587.21,382.65 L 599.50 358.50 L 604.90 356.77 C613.15,354.13 617.00,349.59 617.00,342.52 C617.00,337.25 614.85,333.01 609.84,328.41 C595.53,315.26 576.55,320.95 578.53,337.80 L 579.16 343.10 L 554.39 368.80 C540.76,382.93 526.44,397.81 522.56,401.87 ZM 530.34 302.43 C530.81,303.66 532.54,304.00 538.34,304.00 L 545.75 304.00 L 546.38 300.88 C546.72,299.16 547.00,294.51 547.00,290.55 L 547.00 283.36 L 561.25 283.43 C574.19,283.49 575.98,283.28 580.74,281.13 C591.30,276.36 596.49,267.29 595.85,254.72 C595.55,248.68 594.97,246.55 592.69,243.11 C589.56,238.38 582.56,233.51 576.52,231.85 C572.71,230.81 534.97,227.98 534.09,228.67 C533.35,229.25 529.71,300.81 530.34,302.43 ZM 689.36 324.67 C693.84,325.77 697.78,326.53 698.12,326.36 C698.46,326.18 697.50,320.75 695.99,314.27 C693.77,304.81 688.23,279.42 682.18,251.00 C681.51,247.86 680.95,247.38 676.85,246.36 C674.33,245.73 670.50,244.92 668.33,244.56 L 664.39 243.89 L 644.01 272.19 C632.81,287.76 622.13,302.60 620.29,305.17 C618.45,307.74 617.29,310.04 617.72,310.28 C618.96,310.96 634.01,313.33 634.35,312.90 C634.52,312.68 636.60,309.69 638.97,306.25 C641.37,302.77 644.04,300.00 644.97,300.00 C646.69,300.00 677.29,306.01 677.76,306.44 C677.90,306.57 678.73,310.28 679.61,314.67 L 681.22 322.67 ZM 335.53 325.82 C335.79,326.56 336.76,326.89 337.75,326.58 C341.52,325.39 382.33,316.07 386.55,315.44 C389.01,315.07 391.24,314.41 391.51,313.98 C392.52,312.35 389.35,301.50 387.77,301.20 C386.91,301.03 378.27,302.76 368.57,305.04 C358.87,307.32 350.38,308.98 349.70,308.72 C348.51,308.26 344.62,294.04 345.46,293.21 C346.07,292.60 374.18,286.03 376.25,286.01 C378.33,286.00 378.45,284.10 376.83,277.06 C375.93,273.19 375.27,272.09 374.08,272.45 C366.83,274.65 342.40,279.78 341.89,279.22 C341.21,278.45 337.81,263.82 338.24,263.48 C338.38,263.37 347.05,261.36 357.50,259.00 C367.95,256.64 376.67,254.58 376.87,254.41 C377.07,254.24 376.65,251.13 375.93,247.51 L 374.62 240.92 L 371.56 241.57 C364.19,243.12 325.90,251.95 322.09,252.97 C318.85,253.85 318.02,254.49 318.43,255.80 C318.72,256.74 322.59,272.58 327.01,291.00 C331.44,309.42 335.27,325.09 335.53,325.82 ZM 458.50 407.94 C466.20,408.36 480.21,408.77 489.63,408.85 L 506.75 409.00 L 517.28 397.25 L 527.81 385.50 L 513.16 385.19 C493.56,384.78 446.00,386.64 428.00,388.52 C405.57,390.86 391.00,394.20 391.00,397.00 C391.00,400.98 421.49,405.92 458.50,407.94 ZM 503.00 687.07 L 503.00 707.00 L 522.00 707.00 L 522.00 687.00 L 542.00 687.00 L 542.00 669.07 L 532.25 668.79 L 522.50 668.50 L 521.93 648.00 L 503.07 648.00 L 502.78 658.25 L 502.50 668.50 L 481.93 668.50 L 482.22 677.50 L 482.50 686.50 ZM 359.08 771.08 C355.19,774.96 352.11,774.79 343.50,770.21 C338.08,767.33 336.55,766.03 336.70,764.46 C336.89,762.54 347.82,742.13 350.16,739.30 C350.76,738.59 351.99,738.00 352.90,738.00 C355.71,738.00 365.58,744.78 366.86,747.59 C368.62,751.45 366.76,756.44 362.98,758.01 C360.57,759.01 360.22,759.54 361.02,761.05 C362.81,764.39 362.10,768.05 359.08,771.08 ZM 571.36 268.62 C568.01,270.02 563.83,270.14 554.00,269.09 C549.27,268.58 548.53,268.22 548.69,266.50 C548.80,265.40 549.18,259.68 549.54,253.78 L 550.19 243.06 L 554.34 243.51 C556.63,243.76 561.63,244.24 565.45,244.58 C571.57,245.13 572.80,245.60 575.70,248.50 C578.55,251.35 579.00,252.48 579.00,256.77 C579.00,262.58 576.49,266.48 571.36,268.62 ZM 770.08 692.08 C766.18,695.98 762.49,695.87 756.43,691.70 C747.68,685.67 746.18,678.33 752.64,673.19 L 756.03 670.50 L 751.53 666.50 C747.42,662.85 747.16,662.34 748.46,660.63 C749.46,659.33 750.60,658.95 752.20,659.38 C754.98,660.13 777.36,678.76 777.83,680.72 C778.30,682.67 776.12,684.98 774.43,684.33 C773.41,683.94 773.00,684.56 773.00,686.47 C773.00,688.10 771.86,690.30 770.08,692.08 ZM 248.50 673.57 C240.83,679.61 239.60,680.16 237.43,678.56 C235.88,677.42 235.75,676.88 236.75,675.87 C238.53,674.07 238.30,673.00 236.13,673.00 C232.55,673.00 229.00,669.16 229.00,665.27 C229.00,658.52 237.88,651.00 245.86,651.00 C249.82,651.00 254.00,654.83 254.00,658.45 C254.00,659.85 254.23,661.00 254.51,661.00 C254.79,661.00 256.88,659.65 259.16,658.00 C264.01,654.49 265.55,654.28 266.98,656.96 C267.89,658.66 267.32,659.49 262.77,663.10 C259.87,665.39 256.38,667.98 255.00,668.85 C253.62,669.72 250.70,671.84 248.50,673.57 ZM 455.37 808.25 C454.74,810.45 451.40,810.53 450.20,808.39 C449.48,807.10 448.88,807.00 447.23,807.88 C444.40,809.39 439.59,808.25 436.95,805.45 C435.06,803.43 434.81,802.25 435.16,796.78 C435.43,792.55 436.22,789.57 437.53,787.79 C441.19,782.86 447.35,781.52 450.48,784.98 C452.72,787.45 454.00,786.73 454.00,783.01 C454.00,778.41 455.71,775.00 458.01,775.00 C459.14,775.00 460.31,775.64 460.61,776.41 C461.07,777.62 456.89,803.02 455.37,808.25 ZM 703.44 753.06 C701.42,755.30 700.10,755.53 699.55,753.75 C699.33,753.06 697.10,746.20 694.58,738.50 C692.06,730.80 690.00,723.54 690.00,722.36 C690.00,720.23 693.76,717.00 696.25,717.00 C697.71,717.00 724.31,734.75 724.81,736.05 C724.98,736.50 723.98,737.62 722.59,738.53 C720.18,740.11 719.87,740.08 716.55,738.03 C715.07,737.12 714.17,736.56 713.24,736.52 C711.74,736.46 710.18,737.78 706.10,741.24 L 706.09 741.25 C702.99,743.88 702.90,744.16 704.02,747.56 C705.03,750.62 704.95,751.40 703.44,753.06 ZM 584.00 405.63 C584.00,406.55 598.20,405.45 612.00,403.44 C624.34,401.65 633.15,399.19 633.73,397.38 C634.18,395.94 628.07,393.49 620.45,392.06 C613.44,390.75 592.70,387.95 592.43,388.27 C591.80,389.00 584.00,405.07 584.00,405.63 ZM 801.00 646.83 C801.00,651.33 798.72,651.04 788.24,645.19 C778.06,639.51 775.73,636.83 780.02,635.70 C781.55,635.30 781.99,634.45 781.82,632.22 C781.56,628.79 784.10,624.42 786.87,623.54 C788.47,623.03 788.71,622.27 788.28,619.04 C787.84,615.80 788.19,614.72 790.33,612.58 C793.94,608.97 797.62,609.28 807.02,614.01 C815.12,618.08 816.02,619.22 813.70,622.40 C812.47,624.07 811.93,623.95 804.68,620.36 C796.46,616.29 793.85,616.38 793.19,620.74 C792.85,623.04 795.56,625.26 803.73,629.38 C808.69,631.88 808.90,632.13 807.82,634.50 C807.19,635.88 806.31,637.00 805.86,637.00 C805.40,637.00 801.64,635.32 797.49,633.27 C789.42,629.27 786.84,629.40 786.18,633.83 C785.87,635.93 788.44,637.99 797.91,643.20 C799.70,644.19 801.00,645.71 801.00,646.83 ZM 586.46 806.06 C585.43,807.72 581.93,807.75 581.05,806.10 C579.99,804.11 574.75,783.89 575.20,783.51 C575.37,783.36 576.51,782.94 577.75,782.56 C579.30,782.08 580.19,782.32 580.57,783.32 C581.01,784.47 581.65,784.26 583.64,782.27 C585.80,780.11 586.82,779.82 590.93,780.22 C594.98,780.61 596.05,780.32 597.96,778.34 C599.56,776.68 601.33,776.00 604.08,776.00 C608.93,776.00 610.15,777.71 613.49,789.09 C615.76,796.87 615.82,797.59 614.28,798.75 C611.10,801.14 610.08,800.04 607.45,791.44 C604.81,782.77 603.15,780.79 600.11,782.70 C597.69,784.22 597.59,786.68 599.60,794.77 C601.19,801.17 601.24,802.24 599.96,803.06 C596.97,804.98 595.51,803.50 593.49,796.49 C592.38,792.64 591.16,788.71 590.77,787.75 C589.78,785.29 586.33,785.57 584.56,788.26 C583.24,790.29 583.28,791.32 584.99,797.95 C586.04,802.03 586.70,805.68 586.46,806.06 ZM 469.16 290.32 C467.02,291.17 460.33,292.19 454.29,292.57 L 443.31 293.27 L 442.65 288.49 C442.29,285.87 442.00,281.83 442.00,279.51 L 442.00 275.30 L 450.25 274.65 C466.27,273.41 468.83,273.67 472.08,276.92 C477.03,281.87 475.76,287.68 469.16,290.32 ZM 483.00 810.08 C483.00,813.81 482.85,814.00 479.86,814.00 L 476.71 814.00 L 477.43 798.28 C477.83,789.64 478.37,782.21 478.63,781.78 C479.45,780.46 490.86,780.92 494.45,782.42 C498.53,784.12 500.00,786.58 500.00,791.71 C500.00,798.26 494.82,803.00 487.66,803.00 C483.76,803.00 483.00,804.15 483.00,810.08 ZM 463.55 259.54 C461.66,260.34 455.64,261.28 450.19,261.63 L 440.27 262.28 L 439.76 253.89 C439.49,249.28 439.36,245.37 439.49,245.22 C439.62,245.07 444.85,244.70 451.11,244.41 C464.18,243.80 466.89,244.64 468.37,249.78 C469.63,254.20 467.89,257.73 463.55,259.54 ZM 512.21 805.77 L 511.92 815.00 L 509.11 815.00 C506.32,815.00 506.29,814.92 505.65,807.35 C505.29,803.14 505.00,795.30 505.00,789.92 C505.00,781.03 505.18,780.08 506.99,779.50 C510.01,778.54 510.99,779.70 511.07,784.31 C511.17,790.06 512.10,792.18 514.00,790.98 C514.83,790.46 517.40,790.02 519.72,790.02 C525.44,789.99 526.73,792.60 527.12,805.03 L 527.42 814.50 L 521.50 814.50 L 520.98 805.78 C520.38,795.90 519.39,794.13 515.26,795.58 C512.55,796.53 512.49,796.71 512.21,805.77 ZM 207.00 619.49 C207.00,619.73 206.15,620.39 205.11,620.94 C203.74,621.67 202.91,621.60 202.16,620.69 C200.89,619.16 195.00,606.18 195.00,604.91 C195.00,604.04 218.38,591.93 222.60,590.61 C224.45,590.04 225.15,590.93 228.35,597.94 C230.36,602.33 232.00,606.37 232.00,606.93 C232.00,607.48 231.10,608.41 230.00,609.00 C228.20,609.96 227.75,609.50 225.47,604.33 C224.07,601.18 222.79,598.46 222.62,598.29 C222.45,598.11 220.66,598.66 218.64,599.50 L 214.98 601.04 L 217.05 605.09 C219.40,609.71 219.30,613.33 216.80,613.80 C215.59,614.03 214.49,612.68 212.93,609.06 C211.73,606.28 210.57,604.00 210.34,604.00 C210.11,604.00 208.16,604.90 206.01,605.99 L 202.10 607.99 L 204.55 613.52 C205.90,616.57 207.00,619.25 207.00,619.49 ZM 748.60 714.77 C744.90,716.46 743.69,716.33 740.63,713.93 C736.49,710.67 737.07,707.30 743.21,698.78 C744.15,697.48 744.17,696.77 743.30,695.90 C741.26,693.86 737.51,695.75 735.11,700.02 C732.67,704.36 730.71,704.79 730.17,701.10 C729.77,698.34 733.46,692.75 737.11,690.59 C742.21,687.58 744.68,688.45 752.37,695.97 C758.44,701.90 759.34,703.20 758.39,704.72 C757.78,705.70 756.66,706.50 755.89,706.50 C755.13,706.50 753.78,708.08 752.90,710.02 C752.02,711.96 750.09,714.09 748.60,714.77 ZM 788.36 667.03 C785.27,670.44 784.19,671.00 780.63,671.00 C773.15,670.99 766.00,664.68 766.00,658.09 C766.00,654.49 767.94,650.66 770.95,648.28 C773.43,646.33 781.42,646.71 784.14,648.91 L 786.50 650.83 L 782.25 656.99 C779.91,660.37 778.00,663.51 778.00,663.96 C778.00,664.40 779.00,665.03 780.22,665.35 C783.00,666.07 786.52,662.97 788.20,658.33 C789.46,654.84 791.66,653.94 792.64,656.50 C793.63,659.09 792.08,662.90 788.36,667.03 ZM 319.06 751.42 C317.40,753.43 316.35,753.36 311.84,750.98 C303.65,746.65 302.00,740.54 306.94,732.75 C311.78,725.12 320.07,723.92 326.13,729.97 C329.72,733.57 330.07,739.37 326.93,743.37 C325.79,744.81 324.49,746.00 324.05,746.00 C323.60,746.00 320.63,743.97 317.43,741.49 C311.43,736.83 310.05,736.86 310.02,741.68 C310.00,743.81 314.19,747.99 316.38,748.02 C317.00,748.02 318.15,748.44 318.94,748.94 C320.13,749.69 320.15,750.12 319.06,751.42 ZM 426.96 802.07 C426.40,803.13 425.38,803.94 424.71,803.86 C410.10,802.23 405.01,794.75 410.79,783.42 C413.93,777.26 420.66,775.22 427.02,778.51 C430.69,780.41 432.00,782.83 431.98,787.68 C431.96,794.18 431.21,794.56 423.20,792.13 C419.35,790.96 415.92,790.00 415.59,790.00 C415.27,790.00 415.00,791.37 415.00,793.05 C415.00,795.59 415.59,796.35 418.47,797.55 C420.38,798.35 423.30,799.00 424.97,799.00 C428.31,799.00 428.47,799.25 426.96,802.07 ZM 259.87 698.66 C258.09,700.80 256.35,700.25 252.12,696.23 C245.47,689.90 245.43,684.14 251.98,677.90 C258.17,672.01 265.92,672.27 270.83,678.51 C274.08,682.65 273.68,687.28 269.70,691.63 L 266.41 695.22 L 261.19 689.51 C255.51,683.30 253.00,682.82 253.00,687.92 C253.00,690.20 253.94,691.66 256.99,694.11 C260.10,696.61 260.73,697.62 259.87,698.66 ZM 632.51 791.58 C627.59,796.51 619.00,793.62 619.00,787.04 C619.00,783.88 621.54,780.85 626.31,778.36 C628.04,777.45 629.00,776.23 628.80,775.19 C628.28,772.46 624.22,772.60 620.44,775.48 C616.83,778.23 615.00,778.11 615.00,775.10 C615.00,772.82 617.58,770.49 622.25,768.54 C630.17,765.23 633.37,767.60 637.43,779.78 C640.25,788.26 640.12,790.53 636.85,789.67 C635.65,789.36 634.01,790.08 632.51,791.58 ZM 545.82 812.41 C540.52,816.13 533.00,812.61 533.00,806.41 C533.00,803.63 533.60,802.61 536.12,801.07 C537.83,800.03 540.79,798.89 542.68,798.53 C545.50,798.00 546.07,797.49 545.81,795.69 C545.41,792.87 541.16,792.28 536.83,794.43 C536.70,794.50 536.56,794.57 536.43,794.63 C534.51,795.60 533.66,796.02 533.29,795.76 C533.00,795.56 533.00,794.93 533.00,793.82 C533.00,793.73 533.00,793.63 533.00,793.53 C533.00,790.22 537.40,788.00 543.93,788.00 C551.16,788.00 551.86,789.32 553.46,806.14 C553.89,810.76 553.70,811.90 552.37,812.41 C551.48,812.75 550.15,812.54 549.42,811.93 C548.43,811.11 547.51,811.23 545.82,812.41 ZM 383.39 779.42 C379.68,787.96 378.36,789.22 375.80,786.65 C375.06,785.91 372.85,785.01 370.90,784.64 C368.95,784.27 366.37,783.06 365.18,781.95 C362.45,779.41 362.26,773.98 364.83,771.65 C366.94,769.75 374.06,769.43 377.19,771.10 C378.78,771.95 379.45,771.89 380.11,770.85 C381.99,767.90 380.05,765.77 374.83,765.08 C371.36,764.61 370.50,764.10 370.50,762.50 C370.50,759.34 378.46,759.17 383.03,762.24 C387.92,765.52 387.99,768.84 383.39,779.42 ZM 830.00 607.92 C830.00,608.85 829.40,610.44 828.67,611.43 C827.42,613.14 827.19,613.05 824.81,610.02 L 822.28 606.78 L 809.11 606.24 C801.86,605.95 795.69,605.30 795.38,604.80 C795.07,604.30 795.10,602.74 795.45,601.34 L 796.09 598.79 L 805.29 599.45 L 814.50 600.10 L 811.48 597.30 C809.82,595.76 806.68,593.09 804.52,591.37 C800.85,588.45 800.66,588.05 801.76,585.62 C802.42,584.18 803.30,583.00 803.73,583.00 C804.66,583.01 825.76,601.21 828.25,604.15 C829.21,605.29 830.00,606.99 830.00,607.92 ZM 285.38 714.98 C281.74,718.84 278.43,722.00 278.03,722.00 C277.11,722.00 274.00,718.59 274.00,717.59 C274.00,717.17 276.48,714.49 279.50,711.63 C286.70,704.81 286.99,700.00 280.20,700.00 C279.30,700.00 275.99,702.55 272.84,705.66 L 267.13 711.31 L 264.44 709.55 L 261.75 707.79 L 270.63 698.87 C279.71,689.74 282.53,688.41 282.46,693.28 C282.43,695.41 282.89,696.00 284.58,696.00 C285.76,696.00 287.92,696.93 289.37,698.07 C291.41,699.68 292.00,701.02 292.00,704.05 C292.00,707.50 291.21,708.80 285.38,714.98 ZM 680.01 778.48 C677.41,781.62 675.00,780.16 675.00,775.45 C675.00,772.83 674.13,771.54 670.25,768.40 C667.64,766.29 662.90,762.30 659.72,759.54 C654.53,755.02 654.12,754.38 655.67,753.26 C658.56,751.14 660.73,751.82 666.00,756.50 C668.79,758.97 671.44,761.00 671.89,761.00 C672.34,761.00 672.03,757.60 671.20,753.44 C669.84,746.61 669.85,745.72 671.27,744.30 C674.22,741.35 675.49,743.46 677.80,755.13 C681.02,771.47 681.52,776.67 680.01,778.48 ZM 674.68 289.87 C675.13,291.62 674.81,291.98 672.87,291.89 C670.69,291.79 655.76,288.75 653.11,287.87 C652.04,287.51 667.72,263.00 669.02,263.00 C669.34,263.00 670.61,268.57 671.86,275.37 C673.10,282.17 674.37,288.69 674.68,289.87 ZM 226.94 637.65 C213.08,640.66 212.38,640.63 210.46,636.93 C208.94,633.98 208.98,633.73 211.41,630.68 C218.84,621.35 225.74,614.69 227.34,615.30 C230.39,616.47 229.08,620.19 223.28,626.80 C218.33,632.44 217.89,633.25 220.03,632.80 C221.39,632.51 225.36,631.67 228.85,630.92 C234.83,629.64 235.29,629.67 236.62,631.49 C237.39,632.55 237.88,633.86 237.70,634.40 C237.52,634.94 232.68,636.40 226.94,637.65 ZM 736.60 726.60 C731.24,731.96 725.81,731.10 719.65,723.91 C716.80,720.57 716.00,718.79 716.00,715.72 C716.00,710.96 718.78,706.75 723.12,704.95 C726.05,703.74 726.43,703.82 728.20,706.00 L 730.11 708.36 L 726.90 709.43 C722.46,710.91 721.35,713.01 722.95,716.87 C724.40,720.39 730.00,724.32 732.30,723.44 C733.13,723.12 734.39,721.43 735.08,719.68 C736.08,717.17 736.47,716.18 737.00,716.09 C737.34,716.04 737.75,716.38 738.43,716.94 L 738.48 716.98 C741.02,719.09 740.27,722.93 736.60,726.60 ZM 299.07 735.96 C296.33,737.43 294.94,737.25 291.36,734.95 C287.75,732.64 285.51,728.07 286.37,724.77 C288.17,717.85 294.80,712.01 300.85,712.00 C303.33,712.00 305.08,712.88 307.60,715.40 C311.13,718.93 311.86,721.74 309.80,723.80 C308.20,725.40 307.00,725.32 307.00,723.61 C307.00,722.85 306.18,721.20 305.17,719.96 C302.87,717.12 299.19,717.81 295.53,721.75 C291.15,726.47 292.60,732.00 298.20,732.00 C301.49,732.00 302.01,734.39 299.07,735.96 ZM 657.02 781.49 C650.03,785.11 642.61,781.10 639.97,772.29 C638.43,767.14 639.30,763.55 642.97,759.87 C647.22,755.63 655.00,756.16 655.00,760.70 C655.00,761.50 653.74,762.00 651.70,762.00 C649.89,762.00 647.86,762.54 647.20,763.20 C645.12,765.28 645.81,770.62 648.59,773.92 C651.79,777.73 655.33,777.96 657.59,774.50 C659.56,771.49 660.66,771.34 661.49,773.96 C662.34,776.64 660.53,779.67 657.02,781.49 ZM 401.37 792.93 C398.05,795.54 394.42,795.56 390.22,792.99 C386.48,790.71 385.22,788.38 386.84,786.76 C387.66,785.94 388.43,786.08 389.73,787.25 C390.70,788.12 392.68,789.14 394.11,789.50 C398.45,790.58 398.64,787.45 394.51,782.88 C389.01,776.79 390.13,771.31 397.24,769.62 C400.46,768.85 406.75,771.18 407.62,773.45 C407.95,774.30 407.94,775.71 407.61,776.57 C407.08,777.95 406.67,777.88 404.37,776.07 C398.16,771.19 394.61,775.26 400.35,780.68 C405.00,785.07 405.39,789.76 401.37,792.93 ZM 566.67 810.23 C564.79,811.42 561.98,811.11 561.42,809.64 C560.38,806.95 557.18,787.52 557.64,786.77 C558.41,785.53 563.00,785.89 563.00,787.19 C563.00,787.84 563.94,787.37 565.09,786.13 C567.95,783.06 571.40,783.64 571.82,787.25 C572.07,789.46 571.73,790.00 570.09,790.00 C568.97,790.00 567.32,791.10 566.44,792.45 C564.99,794.67 564.98,795.58 566.34,802.19 C567.47,807.69 567.55,809.66 566.67,810.23 ZM 233.03 649.89 C227.82,653.25 223.01,656.00 222.35,656.00 C220.91,656.00 219.60,652.46 220.50,651.00 C221.22,649.84 236.95,639.34 239.36,638.41 C240.44,638.00 241.33,638.64 242.14,640.41 C242.79,641.84 243.14,643.18 242.91,643.40 C242.69,643.61 238.24,646.53 233.03,649.89 ZM 442.53 802.04 C445.80,805.65 450.25,802.82 451.46,796.35 C452.20,792.44 450.11,789.00 447.00,789.00 C442.49,789.00 439.26,798.42 442.53,802.04 ZM 758.53 684.90 C760.48,686.60 762.86,688.00 763.83,688.00 C768.82,688.00 769.51,681.45 764.92,677.59 C761.35,674.58 760.25,674.43 757.22,676.56 C754.06,678.77 754.46,681.32 758.53,684.90 ZM 236.91 668.13 C240.05,670.67 242.27,670.48 245.98,667.37 C248.45,665.28 249.04,664.08 248.80,661.62 C248.55,659.03 248.02,658.44 245.69,658.18 C242.41,657.80 238.74,659.94 236.31,663.64 C234.66,666.17 234.68,666.32 236.91,668.13 ZM 484.67 797.33 C485.88,798.55 489.31,798.03 491.17,796.35 C493.68,794.08 493.61,788.40 491.07,787.04 C490.00,786.47 487.98,786.00 486.57,786.00 C484.13,786.00 484.00,786.27 484.00,791.33 C484.00,794.27 484.30,796.97 484.67,797.33 ZM 346.75 766.43 C350.55,768.49 352.64,768.35 354.33,765.94 C356.11,763.40 355.44,760.42 352.65,758.47 C349.50,756.26 347.69,756.69 345.75,760.09 C343.44,764.15 343.52,764.67 346.75,766.43 ZM 700.52 736.78 C700.83,737.69 702.10,737.30 704.97,735.40 L 708.99 732.74 L 702.78 728.42 C699.36,726.04 696.45,724.22 696.31,724.36 C696.16,724.50 696.95,727.07 698.06,730.06 C699.17,733.05 700.28,736.08 700.52,736.78 ZM 353.75 753.43 L 354.11 753.63 C355.76,754.52 356.50,754.92 357.14,754.81 C357.70,754.71 358.20,754.23 359.17,753.35 C361.63,751.12 361.48,748.45 358.78,746.56 C355.58,744.32 354.25,744.61 352.53,747.95 L 352.44 748.12 C351.46,750.01 351.00,750.91 351.22,751.57 C351.43,752.18 352.23,752.60 353.75,753.43 ZM 317.66 736.24 C319.77,737.69 321.95,738.75 322.50,738.60 C324.27,738.13 324.23,734.91 322.43,732.93 C320.40,730.68 318.10,730.47 315.60,732.30 C313.96,733.51 314.12,733.81 317.66,736.24 ZM 261.80 683.62 C264.86,687.45 265.26,687.60 267.02,685.47 C269.09,682.98 266.74,679.00 263.19,679.00 C259.03,679.00 258.78,679.83 261.80,683.62 ZM 771.94 658.75 L 773.20 661.50 L 776.11 658.03 C777.71,656.12 778.87,654.09 778.68,653.53 C778.06,651.63 774.41,651.89 772.54,653.96 C770.93,655.73 770.85,656.38 771.94,658.75 ZM 539.33 807.42 C540.05,809.28 544.08,809.52 545.80,807.80 C546.46,807.14 547.00,805.52 547.00,804.19 C547.00,802.07 546.68,801.86 544.25,802.46 C540.66,803.34 538.57,805.45 539.33,807.42 ZM 625.67 788.33 C627.84,790.51 632.00,787.97 632.00,784.47 C632.00,781.33 631.08,780.91 627.87,782.57 C625.20,783.95 624.12,786.78 625.67,788.33 ZM 420.50 787.29 C424.60,788.27 426.00,788.00 426.00,786.20 C426.00,782.27 420.53,780.46 417.96,783.54 C416.54,785.26 417.40,786.54 420.50,787.29 ZM 250.95 638.56 C248.29,641.77 242.49,638.63 244.66,635.17 C246.25,632.62 249.68,632.53 251.00,635.00 C251.86,636.61 251.85,637.48 250.95,638.56 ZM 370.44 779.56 C373.00,781.46 373.61,781.39 376.10,778.90 C378.54,776.46 377.66,775.02 373.55,774.71 C369.71,774.42 367.71,777.53 370.44,779.56 ZM 745.25 709.34 C747.21,710.13 747.52,710.08 748.80,708.80 C750.34,707.26 750.34,703.74 748.81,702.21 C747.90,701.30 747.21,701.40 745.81,702.67 C743.74,704.55 743.39,708.59 745.25,709.34 Z"/>
<path fill="rgb(32,151,96)" d="M 528.20 594.71 C522.86,597.29 518.20,599.56 517.84,599.75 C516.38,600.53 515.89,585.79 516.19,550.30 L 516.50 513.09 L 520.46 509.03 C525.80,503.58 540.20,496.58 552.51,493.47 C566.67,489.90 590.30,487.58 603.44,488.47 L 613.97 489.19 L 627.98 531.59 C635.69,554.92 642.00,574.33 642.00,574.75 C641.99,575.16 632.66,575.56 621.25,575.63 C584.67,575.87 554.36,582.09 528.20,594.71 ZM 507.38 593.75 C507.01,597.19 506.44,599.97 506.11,599.94 C505.77,599.91 501.67,597.90 497.00,595.48 C470.54,581.75 432.20,574.09 395.36,575.17 C388.01,575.38 382.00,575.21 382.00,574.78 C382.00,572.97 409.19,492.12 410.32,490.58 C411.40,489.10 413.85,488.88 429.53,488.82 C447.98,488.74 454.86,489.46 470.50,493.11 C481.48,495.67 495.90,502.40 502.09,507.85 L 506.68 511.89 L 507.36 549.69 C507.73,570.49 507.74,590.31 507.38,593.75 ZM 521.57 616.89 C518.47,618.05 514.25,618.99 512.21,618.97 C505.99,618.91 497.87,615.52 494.09,611.40 C490.13,607.09 486.83,606.08 466.50,603.02 C446.44,600.00 423.55,598.66 404.16,599.38 C385.89,600.05 361.13,602.30 352.17,604.10 C349.24,604.69 346.61,604.95 346.34,604.67 C346.06,604.39 348.62,596.82 352.02,587.83 C355.42,578.85 360.56,565.20 363.45,557.50 C366.33,549.80 371.12,537.11 374.10,529.30 L 379.50 515.09 L 385.76 513.39 C389.21,512.46 392.22,511.89 392.46,512.13 C392.70,512.36 388.01,527.45 382.05,545.66 C376.09,563.86 370.91,580.14 370.54,581.84 L 369.86 584.92 L 393.18 584.36 C411.29,583.92 419.52,584.15 430.00,585.41 C456.42,588.57 481.28,596.23 500.31,607.08 C505.36,609.96 510.67,612.32 512.09,612.32 C513.52,612.33 517.44,610.66 520.79,608.62 C538.81,597.68 562.72,589.96 591.50,585.80 C597.24,584.97 610.20,584.53 627.29,584.57 L 654.08 584.64 L 653.42 581.63 C652.86,579.10 633.04,517.86 631.35,513.46 C630.62,511.56 633.18,511.57 639.67,513.49 L 644.70 514.99 L 652.23 534.74 C665.96,570.73 678.22,604.11 677.86,604.47 C677.66,604.67 675.40,604.44 672.83,603.96 C657.18,601.04 637.11,599.64 611.00,599.65 C582.12,599.66 567.53,600.88 545.53,605.11 C535.35,607.07 534.29,607.49 530.89,611.00 C528.73,613.21 524.89,615.65 521.57,616.89 Z"/>
<path fill="rgb(227,188,91)" d="M 607.77 480.25 C593.71,479.63 571.24,480.65 562.00,482.45 C542.83,486.18 525.29,493.17 516.76,500.47 C514.50,502.41 512.38,504.00 512.05,504.00 C511.73,504.00 509.25,502.17 506.56,499.94 C496.53,491.66 477.56,484.59 457.13,481.52 C448.61,480.24 428.59,479.76 415.89,480.34 C418.35,480.21 420.98,480.12 423.25,480.10 C428.06,480.04 432.00,479.65 432.00,479.22 C432.00,478.79 428.74,475.59 424.75,472.12 C414.75,463.40 405.94,452.27 400.06,440.93 C393.53,428.33 387.42,407.09 389.89,405.57 C390.38,405.26 392.41,405.69 394.40,406.52 C402.05,409.72 421.54,412.67 451.50,415.16 C474.51,417.07 555.49,416.79 580.24,414.71 C603.21,412.77 617.75,410.66 627.35,407.86 C631.11,406.76 634.42,406.09 634.71,406.37 C635.71,407.37 631.12,425.86 628.02,433.29 C622.02,447.70 608.30,465.70 595.65,475.73 L 591.81 478.78 L 597.65 479.37 C599.95,479.60 603.93,479.95 607.77,480.25 ZM 522.56 401.87 C526.44,397.81 540.76,382.93 554.39,368.80 L 579.16 343.10 L 578.53 337.80 C576.55,320.95 595.53,315.26 609.84,328.41 C614.85,333.01 617.00,337.25 617.00,342.52 C617.00,349.59 613.15,354.13 604.90,356.77 L 599.50 358.50 L 587.21 382.65 C577.72,401.31 574.42,406.93 572.71,407.35 C571.49,407.66 558.12,408.20 543.00,408.57 L 527.44 408.94 C529.18,408.51 531.09,407.38 532.52,405.75 C534.08,403.96 538.58,398.90 542.51,394.50 C546.44,390.10 553.96,381.33 559.22,375.00 C564.48,368.67 570.50,361.52 572.60,359.10 C579.97,350.60 573.93,355.65 558.94,370.50 C539.00,390.27 522.90,407.57 523.69,408.36 C524.00,408.67 524.39,408.88 524.84,409.01 L 515.50 409.23 ZM 458.50 407.94 C438.88,406.87 421.09,404.97 408.70,402.84 C409.28,402.89 409.85,402.93 410.37,402.94 C413.68,402.99 414.07,402.78 413.02,401.52 C412.31,400.67 411.95,398.15 412.15,395.52 C412.49,391.26 412.37,391.00 410.01,391.01 C409.66,391.02 409.25,391.04 408.83,391.07 C414.23,390.15 420.70,389.28 428.00,388.52 C446.00,386.64 493.56,384.78 513.16,385.19 L 527.81 385.50 L 517.28 397.25 L 506.75 409.00 L 489.63 408.85 C480.21,408.77 466.20,408.36 458.50,407.94 ZM 447.44 472.65 C454.53,476.71 454.69,475.89 448.24,468.76 C438.88,458.41 430.03,440.28 428.23,427.74 L 427.48 422.50 L 418.99 421.80 C414.32,421.41 409.71,420.89 408.75,420.64 C406.14,419.96 406.51,423.53 409.91,431.79 C416.87,448.65 429.47,462.38 447.44,472.65 ZM 584.00 405.63 C584.00,405.07 591.80,389.00 592.43,388.27 C592.70,387.95 613.44,390.75 620.45,392.06 C628.07,393.49 634.18,395.94 633.73,397.38 C633.15,399.19 624.34,401.65 612.00,403.44 C598.20,405.45 584.00,406.55 584.00,405.63 ZM 404.19 401.95 C404.30,401.99 404.41,402.03 404.54,402.07 C396.05,400.40 391.00,398.62 391.00,397.00 C391.00,395.37 395.93,393.56 404.46,391.87 C403.35,392.27 403.34,392.70 404.16,393.69 C405.10,394.83 404.99,395.75 403.61,398.07 C401.91,400.96 401.92,401.04 404.19,401.95 ZM 584.08 335.31 C584.12,337.61 584.41,338.83 584.73,338.00 C585.68,335.49 589.04,331.57 591.33,330.29 C592.53,329.62 595.28,329.05 597.46,329.04 C601.15,329.00 601.31,328.88 599.78,327.35 C598.75,326.32 596.36,325.66 593.48,325.60 C587.36,325.47 583.96,328.98 584.08,335.31 Z"/>
<path fill="rgb(246,246,246)" d="M 0.00 512.00 L 0.00 0.00 L 512.00 0.00 L 1024.00 0.00 L 1024.00 512.00 L 1024.00 1024.00 L 512.00 1024.00 L 0.00 1024.00 L 0.00 512.00 ZM 512.21 805.77 C512.49,796.71 512.55,796.53 515.26,795.58 C519.39,794.13 520.38,795.90 520.98,805.78 L 521.50 814.50 L 524.46 814.50 L 527.42 814.50 L 527.12 805.03 C526.73,792.60 525.44,789.99 519.72,790.02 C517.40,790.02 514.83,790.46 514.00,790.98 C512.10,792.18 511.17,790.06 511.07,784.31 C510.99,779.70 510.01,778.54 506.99,779.50 C505.18,780.08 505.00,781.03 505.00,789.92 C505.00,795.30 505.29,803.14 505.65,807.35 C506.29,814.92 506.32,815.00 509.11,815.00 L 511.92 815.00 L 512.21 805.77 ZM 483.00 810.08 C483.00,804.15 483.76,803.00 487.66,803.00 C494.82,803.00 500.00,798.26 500.00,791.71 C500.00,786.58 498.53,784.12 494.45,782.42 C490.86,780.92 479.45,780.46 478.63,781.78 C478.37,782.21 477.83,789.64 477.43,798.28 L 476.71 814.00 L 479.86 814.00 C482.85,814.00 483.00,813.81 483.00,810.08 ZM 545.82 812.41 C547.51,811.23 548.43,811.11 549.42,811.93 C550.15,812.54 551.48,812.75 552.37,812.41 C553.70,811.90 553.89,810.76 553.46,806.14 C551.86,789.32 551.16,788.00 543.93,788.00 C537.40,788.00 533.00,790.22 533.00,793.53 C533.00,796.45 532.86,796.42 536.83,794.43 C541.16,792.28 545.41,792.87 545.81,795.69 C546.07,797.49 545.50,798.00 542.68,798.53 C540.79,798.89 537.83,800.03 536.12,801.07 C533.60,802.61 533.00,803.63 533.00,806.41 C533.00,812.61 540.52,816.13 545.82,812.41 ZM 566.67 810.23 C567.55,809.66 567.47,807.69 566.34,802.19 C564.98,795.58 564.99,794.67 566.44,792.45 C567.32,791.10 568.97,790.00 570.09,790.00 C571.73,790.00 572.07,789.46 571.82,787.25 C571.40,783.64 567.95,783.06 565.09,786.13 C563.94,787.37 563.00,787.84 563.00,787.19 C563.00,785.89 558.41,785.53 557.64,786.77 C557.18,787.52 560.38,806.95 561.42,809.64 C561.98,811.11 564.79,811.42 566.67,810.23 ZM 455.37 808.25 C456.89,803.02 461.07,777.62 460.61,776.41 C460.31,775.64 459.14,775.00 458.01,775.00 C455.71,775.00 454.00,778.41 454.00,783.01 C454.00,786.73 452.72,787.45 450.48,784.98 C447.35,781.52 441.19,782.86 437.53,787.79 C436.22,789.57 435.43,792.55 435.16,796.78 C434.81,802.25 435.06,803.43 436.95,805.45 C439.59,808.25 444.40,809.39 447.23,807.88 C448.88,807.00 449.48,807.10 450.20,808.39 C451.40,810.53 454.74,810.45 455.37,808.25 ZM 586.46 806.06 C586.70,805.68 586.04,802.03 584.99,797.95 C583.28,791.32 583.24,790.29 584.56,788.26 C586.33,785.57 589.78,785.29 590.77,787.75 C591.16,788.71 592.38,792.64 593.49,796.49 C595.51,803.50 596.97,804.98 599.96,803.06 C601.24,802.24 601.19,801.17 599.60,794.77 C597.59,786.68 597.69,784.22 600.11,782.70 C603.15,780.79 604.81,782.77 607.45,791.44 C610.08,800.04 611.10,801.14 614.28,798.75 C615.82,797.59 615.76,796.87 613.49,789.09 C610.15,777.71 608.93,776.00 604.08,776.00 C601.33,776.00 599.56,776.68 597.96,778.34 C596.05,780.32 594.98,780.61 590.93,780.22 C586.82,779.82 585.80,780.11 583.64,782.27 C581.65,784.26 581.01,784.47 580.57,783.32 C580.19,782.32 579.30,782.08 577.75,782.56 C576.51,782.94 575.37,783.36 575.20,783.51 C574.75,783.89 579.99,804.11 581.05,806.10 C581.93,807.75 585.43,807.72 586.46,806.06 ZM 426.96 802.07 C428.47,799.25 428.31,799.00 424.97,799.00 C423.30,799.00 420.38,798.35 418.47,797.55 C415.59,796.35 415.00,795.59 415.00,793.05 C415.00,791.37 415.27,790.00 415.59,790.00 C415.92,790.00 419.35,790.96 423.20,792.13 C431.21,794.56 431.96,794.18 431.98,787.68 C432.00,782.83 430.69,780.41 427.02,778.51 C420.66,775.22 413.93,777.26 410.79,783.42 C405.01,794.75 410.10,802.23 424.71,803.86 C425.38,803.94 426.40,803.13 426.96,802.07 ZM 401.37 792.93 C405.39,789.76 405.00,785.07 400.35,780.68 C394.61,775.26 398.16,771.19 404.37,776.07 C406.67,777.88 407.08,777.95 407.61,776.57 C407.94,775.71 407.95,774.30 407.62,773.45 C406.75,771.18 400.46,768.85 397.24,769.62 C390.13,771.31 389.01,776.79 394.51,782.88 C398.64,787.45 398.45,790.58 394.11,789.50 C392.68,789.14 390.70,788.12 389.73,787.25 C388.43,786.08 387.66,785.94 386.84,786.76 C385.22,788.38 386.48,790.71 390.22,792.99 C394.42,795.56 398.05,795.54 401.37,792.93 ZM 632.51 791.58 C634.01,790.08 635.65,789.36 636.85,789.67 C640.12,790.53 640.25,788.26 637.43,779.78 C633.37,767.60 630.17,765.23 622.25,768.54 C617.58,770.49 615.00,772.82 615.00,775.10 C615.00,778.11 616.83,778.23 620.44,775.48 C624.22,772.60 628.28,772.46 628.80,775.19 C629.00,776.23 628.04,777.45 626.31,778.36 C621.54,780.85 619.00,783.88 619.00,787.04 C619.00,793.62 627.59,796.51 632.51,791.58 ZM 383.39 779.42 C387.99,768.84 387.92,765.52 383.03,762.24 C378.46,759.17 370.50,759.34 370.50,762.50 C370.50,764.10 371.36,764.61 374.83,765.08 C380.05,765.77 381.99,767.90 380.11,770.85 C379.45,771.89 378.78,771.95 377.19,771.10 C374.06,769.43 366.94,769.75 364.83,771.65 C362.26,773.98 362.45,779.41 365.18,781.95 C366.37,783.06 368.95,784.27 370.90,784.64 C372.85,785.01 375.06,785.91 375.80,786.65 C378.36,789.22 379.68,787.96 383.39,779.42 ZM 657.02 781.49 C660.53,779.67 662.34,776.64 661.49,773.96 C660.66,771.34 659.56,771.49 657.59,774.50 C655.33,777.96 651.79,777.73 648.59,773.92 C645.81,770.62 645.12,765.28 647.20,763.20 C647.86,762.54 649.89,762.00 651.70,762.00 C653.74,762.00 655.00,761.50 655.00,760.70 C655.00,756.16 647.22,755.63 642.97,759.87 C639.30,763.55 638.43,767.14 639.97,772.29 C642.61,781.10 650.03,785.11 657.02,781.49 ZM 680.01 778.48 C681.52,776.67 681.02,771.47 677.80,755.13 C675.49,743.46 674.22,741.35 671.27,744.30 C669.85,745.72 669.84,746.61 671.20,753.44 C672.03,757.60 672.34,761.00 671.89,761.00 C671.44,761.00 668.79,758.97 666.00,756.50 C660.73,751.82 658.56,751.14 655.67,753.26 C654.12,754.38 654.53,755.02 659.72,759.54 C662.90,762.30 667.64,766.29 670.25,768.40 C674.13,771.54 675.00,772.83 675.00,775.45 C675.00,780.16 677.41,781.62 680.01,778.48 ZM 359.08 771.08 C362.10,768.05 362.81,764.39 361.02,761.05 C360.22,759.54 360.57,759.01 362.98,758.01 C366.76,756.44 368.62,751.45 366.86,747.59 C365.58,744.78 355.71,738.00 352.90,738.00 C351.99,738.00 350.76,738.59 350.16,739.30 C347.82,742.13 336.89,762.54 336.70,764.46 C336.55,766.03 338.08,767.33 343.50,770.21 C352.11,774.79 355.19,774.96 359.08,771.08 ZM 703.44 753.06 C704.95,751.40 705.03,750.62 704.02,747.56 C702.90,744.16 702.99,743.88 706.09,741.25 C712.70,735.64 712.69,735.65 716.55,738.03 C719.87,740.08 720.18,740.11 722.59,738.53 C723.98,737.62 724.98,736.50 724.81,736.05 C724.31,734.75 697.71,717.00 696.25,717.00 C693.76,717.00 690.00,720.23 690.00,722.36 C690.00,723.54 692.06,730.80 694.58,738.50 C697.10,746.20 699.33,753.06 699.55,753.75 C700.10,755.53 701.42,755.30 703.44,753.06 ZM 319.06 751.42 C320.15,750.12 320.13,749.69 318.94,748.94 C318.15,748.44 317.00,748.02 316.38,748.02 C314.19,747.99 310.00,743.81 310.02,741.68 C310.05,736.86 311.43,736.83 317.43,741.49 C320.63,743.97 323.60,746.00 324.05,746.00 C324.49,746.00 325.79,744.81 326.93,743.37 C330.07,739.37 329.72,733.57 326.13,729.97 C320.07,723.92 311.78,725.12 306.94,732.75 C302.00,740.54 303.65,746.65 311.84,750.98 C316.35,753.36 317.40,753.43 319.06,751.42 ZM 299.07 735.96 C302.01,734.39 301.49,732.00 298.20,732.00 C292.60,732.00 291.15,726.47 295.53,721.75 C299.19,717.81 302.87,717.12 305.17,719.96 C306.18,721.20 307.00,722.85 307.00,723.61 C307.00,725.32 308.20,725.40 309.80,723.80 C311.86,721.74 311.13,718.93 307.60,715.40 C305.08,712.88 303.33,712.00 300.85,712.00 C294.80,712.01 288.17,717.85 286.37,724.77 C285.51,728.07 287.75,732.64 291.36,734.95 C294.94,737.25 296.33,737.43 299.07,735.96 ZM 529.50 724.36 C573.31,705.76 618.75,676.22 650.81,645.50 C662.30,634.49 679.62,615.29 678.80,614.46 C676.96,612.63 644.30,609.12 622.00,608.37 C596.41,607.51 572.46,609.23 548.50,613.64 C540.86,615.05 538.91,615.82 535.62,618.76 C522.72,630.29 503.13,630.55 489.43,619.40 C484.19,615.13 483.70,614.96 469.78,612.57 C444.40,608.21 417.18,607.01 389.50,609.03 C374.63,610.11 352.37,612.67 347.68,613.83 L 344.86 614.53 L 351.56 622.38 C376.12,651.16 409.49,677.99 450.14,701.62 C474.76,715.93 509.21,731.47 514.00,730.43 C515.38,730.13 522.35,727.40 529.50,724.36 ZM 736.60 726.60 C740.27,722.93 741.02,719.09 738.48,716.98 C736.71,715.52 736.75,715.49 735.08,719.68 C734.39,721.43 733.13,723.12 732.30,723.44 C730.00,724.32 724.40,720.39 722.95,716.87 C721.35,713.01 722.46,710.91 726.90,709.43 L 730.11 708.36 L 728.20 706.00 C726.43,703.82 726.05,703.74 723.12,704.95 C718.78,706.75 716.00,710.96 716.00,715.72 C716.00,718.79 716.80,720.57 719.65,723.91 C725.81,731.10 731.24,731.96 736.60,726.60 ZM 285.38 714.98 C291.21,708.80 292.00,707.50 292.00,704.05 C292.00,701.02 291.41,699.68 289.37,698.07 C287.92,696.93 285.76,696.00 284.58,696.00 C282.89,696.00 282.43,695.41 282.46,693.28 C282.53,688.41 279.71,689.74 270.63,698.87 L 261.75 707.79 L 264.44 709.55 L 267.13 711.31 L 272.84 705.66 C275.99,702.55 279.30,700.00 280.20,700.00 C286.99,700.00 286.70,704.81 279.50,711.63 C276.48,714.49 274.00,717.17 274.00,717.59 C274.00,718.59 277.11,722.00 278.03,722.00 C278.43,722.00 281.74,718.84 285.38,714.98 ZM 748.60 714.77 C750.09,714.09 752.02,711.96 752.90,710.02 C753.78,708.08 755.13,706.50 755.89,706.50 C756.66,706.50 757.78,705.70 758.39,704.72 C759.34,703.20 758.44,701.90 752.37,695.97 C744.68,688.45 742.21,687.58 737.11,690.59 C733.46,692.75 729.77,698.34 730.17,701.10 C730.71,704.79 732.67,704.36 735.11,700.02 C737.51,695.75 741.26,693.86 743.30,695.90 C744.17,696.77 744.15,697.48 743.21,698.78 C737.07,707.30 736.49,710.67 740.63,713.93 C743.69,716.33 744.90,716.46 748.60,714.77 ZM 259.87 698.66 C260.73,697.62 260.10,696.61 256.99,694.11 C253.94,691.66 253.00,690.20 253.00,687.92 C253.00,682.82 255.51,683.30 261.19,689.51 L 266.41 695.22 L 269.70 691.63 C273.68,687.28 274.08,682.65 270.83,678.51 C265.92,672.27 258.17,672.01 251.98,677.90 C245.43,684.14 245.47,689.90 252.12,696.23 C256.35,700.25 258.09,700.80 259.87,698.66 ZM 770.08 692.08 C771.86,690.30 773.00,688.10 773.00,686.47 C773.00,684.56 773.41,683.94 774.43,684.33 C776.12,684.98 778.30,682.67 777.83,680.72 C777.36,678.76 754.98,660.13 752.20,659.38 C750.60,658.95 749.46,659.33 748.46,660.63 C747.16,662.34 747.42,662.85 751.53,666.50 L 756.03 670.50 L 752.64 673.19 C746.18,678.33 747.68,685.67 756.43,691.70 C762.49,695.87 766.18,695.98 770.08,692.08 ZM 248.50 673.57 C250.70,671.84 253.62,669.72 255.00,668.85 C256.38,667.98 259.87,665.39 262.77,663.10 C267.32,659.49 267.89,658.66 266.98,656.96 C265.55,654.28 264.01,654.49 259.16,658.00 C256.88,659.65 254.79,661.00 254.51,661.00 C254.23,661.00 254.00,659.85 254.00,658.45 C254.00,654.83 249.82,651.00 245.86,651.00 C237.88,651.00 229.00,658.52 229.00,665.27 C229.00,669.16 232.55,673.00 236.13,673.00 C238.30,673.00 238.53,674.07 236.75,675.87 C235.75,676.88 235.88,677.42 237.43,678.56 C239.60,680.16 240.83,679.61 248.50,673.57 ZM 788.36 667.03 C792.08,662.90 793.63,659.09 792.64,656.50 C791.66,653.94 789.46,654.84 788.20,658.33 C786.52,662.97 783.00,666.07 780.22,665.35 C779.00,665.03 778.00,664.40 778.00,663.96 C778.00,663.51 779.91,660.37 782.25,656.99 L 786.50 650.83 L 784.14 648.91 C781.42,646.71 773.43,646.33 770.95,648.28 C767.94,650.66 766.00,654.49 766.00,658.09 C766.00,664.68 773.15,670.99 780.63,671.00 C784.19,671.00 785.27,670.44 788.36,667.03 ZM 233.03 649.89 C238.24,646.53 242.69,643.61 242.91,643.40 C243.14,643.18 242.79,641.84 242.14,640.41 C241.33,638.64 240.44,638.00 239.36,638.41 C236.95,639.34 221.22,649.84 220.50,651.00 C219.60,652.46 220.91,656.00 222.35,656.00 C223.01,656.00 227.82,653.25 233.03,649.89 ZM 801.00 646.83 C801.00,645.71 799.70,644.19 797.91,643.20 C788.44,637.99 785.87,635.93 786.18,633.83 C786.84,629.40 789.42,629.27 797.49,633.27 C801.64,635.32 805.40,637.00 805.86,637.00 C806.31,637.00 807.19,635.88 807.82,634.50 C808.90,632.13 808.69,631.88 803.73,629.38 C795.56,625.26 792.85,623.04 793.19,620.74 C793.85,616.38 796.46,616.29 804.68,620.36 C811.93,623.95 812.47,624.07 813.70,622.40 C816.02,619.22 815.12,618.08 807.02,614.01 C797.62,609.28 793.94,608.97 790.33,612.58 C788.19,614.72 787.84,615.80 788.28,619.04 C788.71,622.27 788.47,623.03 786.87,623.54 C784.10,624.42 781.56,628.79 781.82,632.22 C781.99,634.45 781.55,635.30 780.02,635.70 C775.73,636.83 778.06,639.51 788.24,645.19 C798.72,651.04 801.00,651.33 801.00,646.83 ZM 226.94 637.65 C232.68,636.40 237.52,634.94 237.70,634.40 C237.88,633.86 237.39,632.55 236.62,631.49 C235.29,629.67 234.83,629.64 228.85,630.92 C225.36,631.67 221.39,632.51 220.03,632.80 C217.89,633.25 218.33,632.44 223.28,626.80 C229.08,620.19 230.39,616.47 227.34,615.30 C225.74,614.69 218.84,621.35 211.41,630.68 C208.98,633.73 208.94,633.98 210.46,636.93 C212.38,640.63 213.08,640.66 226.94,637.65 ZM 250.95 638.56 C251.85,637.48 251.86,636.61 251.00,635.00 C249.68,632.53 246.25,632.62 244.66,635.17 C242.49,638.63 248.29,641.77 250.95,638.56 ZM 207.00 619.49 C207.00,619.25 205.90,616.57 204.55,613.52 L 202.10 607.99 L 206.01 605.99 C208.16,604.90 210.11,604.00 210.34,604.00 C210.57,604.00 211.73,606.28 212.93,609.06 C214.49,612.68 215.59,614.03 216.80,613.80 C219.30,613.33 219.40,609.71 217.05,605.09 L 214.98 601.04 L 218.64 599.50 C220.66,598.66 222.45,598.11 222.62,598.29 C222.79,598.46 224.07,601.18 225.47,604.33 C227.75,609.50 228.20,609.96 230.00,609.00 C231.10,608.41 232.00,607.48 232.00,606.93 C232.00,606.37 230.36,602.33 228.35,597.94 C225.15,590.93 224.45,590.04 222.60,590.61 C218.38,591.93 195.00,604.04 195.00,604.91 C195.00,606.18 200.89,619.16 202.16,620.69 C202.91,621.60 203.74,621.67 205.11,620.94 C206.15,620.39 207.00,619.73 207.00,619.49 ZM 521.57 616.89 C524.89,615.65 528.73,613.21 530.89,611.00 C534.29,607.49 535.35,607.07 545.53,605.11 C567.53,600.88 582.12,599.66 611.00,599.65 C637.11,599.64 657.18,601.04 672.83,603.96 C675.40,604.44 677.66,604.67 677.86,604.47 C678.22,604.11 665.96,570.73 652.23,534.74 L 644.70 514.99 L 639.67 513.49 C633.18,511.57 630.62,511.56 631.35,513.46 C633.04,517.86 652.86,579.10 653.42,581.63 L 654.08 584.64 L 627.29 584.57 C610.20,584.53 597.24,584.97 591.50,585.80 C562.72,589.96 538.81,597.68 520.79,608.62 C517.44,610.66 513.52,612.33 512.09,612.32 C510.67,612.32 505.36,609.96 500.31,607.08 C481.28,596.23 456.42,588.57 430.00,585.41 C419.52,584.15 411.29,583.92 393.18,584.36 L 369.86 584.92 L 370.54 581.84 C370.91,580.14 376.09,563.86 382.05,545.66 C388.01,527.45 392.70,512.36 392.46,512.13 C392.22,511.89 389.21,512.46 385.76,513.39 L 379.50 515.09 L 374.10 529.30 C371.12,537.11 366.33,549.80 363.45,557.50 C360.56,565.20 355.42,578.85 352.02,587.83 C348.62,596.82 346.06,604.39 346.34,604.67 C346.61,604.95 349.24,604.69 352.17,604.10 C361.13,602.30 385.89,600.05 404.16,599.38 C423.55,598.66 446.44,600.00 466.50,603.02 C486.83,606.08 490.13,607.09 494.09,611.40 C497.87,615.52 505.99,618.91 512.21,618.97 C514.25,618.99 518.47,618.05 521.57,616.89 ZM 830.00 607.92 C830.00,606.99 829.21,605.29 828.25,604.15 C825.76,601.21 804.66,583.01 803.73,583.00 C803.30,583.00 802.42,584.18 801.76,585.62 C800.66,588.05 800.85,588.45 804.52,591.37 C806.68,593.09 809.82,595.76 811.48,597.30 L 814.50 600.10 L 805.29 599.45 L 796.09 598.79 L 795.45 601.34 C795.10,602.74 795.07,604.30 795.38,604.80 C795.69,605.30 801.86,605.95 809.11,606.24 L 822.28 606.78 L 824.81 610.02 C827.19,613.05 827.42,613.14 828.67,611.43 C829.40,610.44 830.00,608.85 830.00,607.92 ZM 344.38 583.23 C348.16,572.93 352.97,560.00 355.06,554.50 C357.15,549.00 361.85,536.62 365.50,527.00 C369.16,517.38 372.53,509.11 373.00,508.63 C373.47,508.14 378.95,506.33 385.17,504.59 L 396.50 501.42 L 400.00 491.46 L 403.50 481.50 L 409.00 480.85 C419.63,479.59 446.81,479.97 457.13,481.52 C477.56,484.59 496.53,491.66 506.56,499.94 C509.25,502.17 511.73,504.00 512.05,504.00 C512.38,504.00 514.50,502.41 516.76,500.47 C525.29,493.17 542.83,486.18 562.00,482.45 C572.07,480.49 597.84,479.45 611.33,480.46 L 620.91 481.18 L 624.21 491.34 L 627.50 501.49 L 634.66 503.14 C641.85,504.79 652.00,507.90 652.00,508.46 C652.00,508.62 659.02,527.37 667.60,550.13 C676.17,572.88 684.08,593.86 685.17,596.75 C686.25,599.64 687.48,602.00 687.88,602.00 C688.94,602.00 699.72,585.31 706.31,573.50 C723.72,542.26 734.80,503.24 737.97,462.05 C738.59,454.00 739.00,406.71 739.00,344.26 L 739.00 239.93 L 734.25 237.88 C713.02,228.74 670.03,217.10 633.50,210.61 C575.00,200.22 495.52,197.77 435.38,204.51 C380.02,210.72 325.84,223.35 290.70,238.25 L 285.91 240.29 L 286.28 355.39 C286.68,477.49 286.59,475.21 291.49,499.51 C295.21,517.94 302.11,539.58 309.57,556.21 C316.76,572.22 334.52,602.04 336.84,601.98 C337.20,601.97 340.60,593.54 344.38,583.23 ZM 507.38 593.75 C507.74,590.31 507.73,570.49 507.36,549.69 L 506.68 511.89 L 502.09 507.85 C495.90,502.40 481.48,495.67 470.50,493.11 C454.86,489.46 447.98,488.74 429.53,488.82 C413.85,488.88 411.40,489.10 410.32,490.58 C409.19,492.12 382.00,572.97 382.00,574.78 C382.00,575.21 388.01,575.38 395.36,575.17 C432.20,574.09 470.54,581.75 497.00,595.48 C501.67,597.90 505.77,599.91 506.11,599.94 C506.44,599.97 507.01,597.19 507.38,593.75 ZM 528.20 594.71 C554.36,582.09 584.67,575.87 621.25,575.63 C632.66,575.56 641.99,575.16 642.00,574.75 C642.00,574.33 635.69,554.92 627.98,531.59 L 613.97 489.19 L 603.44 488.47 C590.30,487.58 566.67,489.90 552.51,493.47 C540.20,496.58 525.80,503.58 520.46,509.03 L 516.50 513.09 L 516.19 550.30 C515.89,585.79 516.38,600.53 517.84,599.75 C518.20,599.56 522.86,597.29 528.20,594.71 ZM 484.67 797.33 C484.30,796.97 484.00,794.27 484.00,791.33 C484.00,786.27 484.13,786.00 486.57,786.00 C487.98,786.00 490.00,786.47 491.07,787.04 C493.61,788.40 493.68,794.08 491.17,796.35 C489.31,798.03 485.88,798.55 484.67,797.33 ZM 539.33 807.42 C538.57,805.45 540.66,803.34 544.25,802.46 C546.68,801.86 547.00,802.07 547.00,804.19 C547.00,805.52 546.46,807.14 545.80,807.80 C544.08,809.52 540.05,809.28 539.33,807.42 ZM 442.53 802.04 C439.26,798.42 442.49,789.00 447.00,789.00 C450.11,789.00 452.20,792.44 451.46,796.35 C450.25,802.82 445.80,805.65 442.53,802.04 ZM 420.50 787.29 C417.40,786.54 416.54,785.26 417.96,783.54 C420.53,780.46 426.00,782.27 426.00,786.20 C426.00,788.00 424.60,788.27 420.50,787.29 ZM 625.67 788.33 C624.12,786.78 625.20,783.95 627.87,782.57 C631.08,780.91 632.00,781.33 632.00,784.47 C632.00,787.97 627.84,790.51 625.67,788.33 ZM 370.44 779.56 C367.71,777.53 369.71,774.42 373.55,774.71 C377.66,775.02 378.54,776.46 376.10,778.90 C373.61,781.39 373.00,781.46 370.44,779.56 ZM 346.75 766.43 C343.52,764.67 343.44,764.15 345.75,760.09 C347.69,756.69 349.50,756.26 352.65,758.47 C355.44,760.42 356.11,763.40 354.33,765.94 C352.64,768.35 350.55,768.49 346.75,766.43 ZM 353.75 753.43 C350.53,751.68 350.55,751.77 352.53,747.95 C354.25,744.61 355.58,744.32 358.78,746.56 C361.48,748.45 361.63,751.12 359.17,753.35 C357.00,755.31 357.21,755.31 353.75,753.43 ZM 700.52 736.78 C700.28,736.08 699.17,733.05 698.06,730.06 C696.95,727.07 696.16,724.50 696.31,724.36 C696.45,724.22 699.36,726.04 702.78,728.42 L 708.99 732.74 L 704.97 735.40 C702.10,737.30 700.83,737.69 700.52,736.78 ZM 317.66 736.24 C314.12,733.81 313.96,733.51 315.60,732.30 C318.10,730.47 320.40,730.68 322.43,732.93 C324.23,734.91 324.27,738.13 322.50,738.60 C321.95,738.75 319.77,737.69 317.66,736.24 ZM 503.00 697.03 L 503.00 687.07 L 492.75 686.78 L 482.50 686.50 L 482.22 677.50 L 481.93 668.50 L 492.22 668.50 L 502.50 668.50 L 502.78 658.25 L 503.07 648.00 L 512.50 648.00 L 521.93 648.00 L 522.22 658.25 L 522.50 668.50 L 532.25 668.79 L 542.00 669.07 L 542.00 678.04 L 542.00 687.00 L 532.00 687.00 L 522.00 687.00 L 522.00 697.00 L 522.00 707.00 L 512.50 707.00 L 503.00 707.00 L 503.00 697.03 ZM 745.25 709.34 C743.39,708.59 743.74,704.55 745.81,702.67 C747.21,701.40 747.90,701.30 748.81,702.21 C750.34,703.74 750.34,707.26 748.80,708.80 C747.52,710.08 747.21,710.13 745.25,709.34 ZM 261.80 683.62 C258.78,679.83 259.03,679.00 263.19,679.00 C266.74,679.00 269.09,682.98 267.02,685.47 C265.26,687.60 264.86,687.45 261.80,683.62 ZM 758.53 684.90 C754.46,681.32 754.06,678.77 757.22,676.56 C760.25,674.43 761.35,674.58 764.92,677.59 C769.51,681.45 768.82,688.00 763.83,688.00 C762.86,688.00 760.48,686.60 758.53,684.90 ZM 236.91 668.13 C234.68,666.32 234.66,666.17 236.31,663.64 C238.74,659.94 242.41,657.80 245.69,658.18 C248.02,658.44 248.55,659.03 248.80,661.62 C249.04,664.08 248.45,665.28 245.98,667.37 C242.27,670.48 240.05,670.67 236.91,668.13 ZM 771.94 658.75 C770.85,656.38 770.93,655.73 772.54,653.96 C774.41,651.89 778.06,651.63 778.68,653.53 C778.87,654.09 777.71,656.12 776.11,658.03 L 773.20 661.50 L 771.94 658.75 ZM 447.44 472.65 C429.47,462.38 416.87,448.65 409.91,431.79 C406.51,423.53 406.14,419.96 408.75,420.64 C409.71,420.89 414.32,421.41 418.99,421.80 L 427.48 422.50 L 428.23 427.74 C430.03,440.28 438.88,458.41 448.24,468.76 C454.69,475.89 454.53,476.71 447.44,472.65 ZM 523.69 408.36 C522.90,407.57 539.00,390.27 558.94,370.50 C573.93,355.65 579.97,350.60 572.60,359.10 C570.50,361.52 564.48,368.67 559.22,375.00 C553.96,381.33 546.44,390.10 542.51,394.50 C538.58,398.90 534.08,403.96 532.52,405.75 C529.84,408.81 525.44,410.11 523.69,408.36 ZM 404.19 401.95 C401.92,401.04 401.91,400.96 403.61,398.07 C404.99,395.75 405.10,394.83 404.16,393.69 C403.18,392.51 403.38,392.13 405.23,391.64 C406.48,391.30 408.63,391.02 410.01,391.01 C412.37,391.00 412.49,391.26 412.15,395.52 C411.95,398.15 412.31,400.67 413.02,401.52 C414.07,402.78 413.68,402.99 410.37,402.94 C408.24,402.90 405.46,402.46 404.19,401.95 ZM 584.08 335.31 C583.96,328.98 587.36,325.47 593.48,325.60 C596.36,325.66 598.75,326.32 599.78,327.35 C601.31,328.88 601.15,329.00 597.46,329.04 C595.28,329.05 592.53,329.62 591.33,330.29 C589.04,331.57 585.68,335.49 584.73,338.00 C584.41,338.83 584.12,337.61 584.08,335.31 ZM 335.53 325.82 C335.27,325.09 331.44,309.42 327.01,291.00 C322.59,272.58 318.72,256.74 318.43,255.80 C318.02,254.49 318.85,253.85 322.09,252.97 C325.90,251.95 364.19,243.12 371.56,241.57 L 374.62 240.92 L 375.93 247.51 C376.65,251.13 377.07,254.24 376.87,254.41 C376.67,254.58 367.95,256.64 357.50,259.00 C347.05,261.36 338.38,263.37 338.24,263.48 C337.81,263.82 341.21,278.45 341.89,279.22 C342.40,279.78 366.83,274.65 374.08,272.45 C375.27,272.09 375.93,273.19 376.83,277.06 C378.45,284.10 378.33,286.00 376.25,286.01 C374.18,286.03 346.07,292.60 345.46,293.21 C344.62,294.04 348.51,308.26 349.70,308.72 C350.38,308.98 358.87,307.32 368.57,305.04 C378.27,302.76 386.91,301.03 387.77,301.20 C389.35,301.50 392.52,312.35 391.51,313.98 C391.24,314.41 389.01,315.07 386.55,315.44 C382.33,316.07 341.52,325.39 337.75,326.58 C336.76,326.89 335.79,326.56 335.53,325.82 ZM 689.36 324.67 L 681.22 322.67 L 679.61 314.67 C678.73,310.28 677.90,306.57 677.76,306.44 C677.29,306.01 646.69,300.00 644.97,300.00 C644.04,300.00 641.37,302.77 638.97,306.25 C636.60,309.69 634.52,312.68 634.35,312.90 C634.01,313.33 618.96,310.96 617.72,310.28 C617.29,310.04 618.45,307.74 620.29,305.17 C622.13,302.60 632.81,287.76 644.01,272.19 L 664.39 243.89 L 668.33 244.56 C670.50,244.92 674.33,245.73 676.85,246.36 C680.95,247.38 681.51,247.86 682.18,251.00 C688.23,279.42 693.77,304.81 695.99,314.27 C697.50,320.75 698.46,326.18 698.12,326.36 C697.78,326.53 693.84,325.77 689.36,324.67 ZM 674.68 289.87 C674.37,288.69 673.10,282.17 671.86,275.37 C670.61,268.57 669.34,263.00 669.02,263.00 C667.72,263.00 652.04,287.51 653.11,287.87 C655.76,288.75 670.69,291.79 672.87,291.89 C674.81,291.98 675.13,291.62 674.68,289.87 ZM 427.00 306.25 C427.00,304.73 422.96,254.74 421.56,238.94 L 421.07 233.38 L 442.79 231.74 C469.58,229.72 475.43,230.47 481.13,236.65 C484.97,240.81 486.00,243.32 486.00,248.47 C486.00,254.42 484.06,258.93 480.06,262.30 C477.25,264.66 477.07,265.07 478.67,265.57 C487.53,268.29 492.33,274.73 492.33,283.88 C492.33,292.80 488.16,298.68 479.57,301.88 C473.06,304.30 470.22,304.72 448.54,306.51 C426.22,308.36 427.00,308.37 427.00,306.25 ZM 469.16 290.32 C475.76,287.68 477.03,281.87 472.08,276.92 C468.83,273.67 466.27,273.41 450.25,274.65 L 442.00 275.30 L 442.00 279.51 C442.00,281.83 442.29,285.87 442.65,288.49 L 443.31 293.27 L 454.29 292.57 C460.33,292.19 467.02,291.17 469.16,290.32 ZM 463.55 259.54 C467.89,257.73 469.63,254.20 468.37,249.78 C466.89,244.64 464.18,243.80 451.11,244.41 C444.85,244.70 439.62,245.07 439.49,245.22 C439.36,245.37 439.49,249.28 439.76,253.89 L 440.27 262.28 L 450.19 261.63 C455.64,261.28 461.66,260.34 463.55,259.54 ZM 530.34 302.43 C529.71,300.81 533.35,229.25 534.09,228.67 C534.97,227.98 572.71,230.81 576.52,231.85 C582.56,233.51 589.56,238.38 592.69,243.11 C594.97,246.55 595.55,248.68 595.85,254.72 C596.49,267.29 591.30,276.36 580.74,281.13 C575.98,283.28 574.19,283.49 561.25,283.43 L 547.00 283.36 L 547.00 290.55 C547.00,294.51 546.72,299.16 546.38,300.88 L 545.75 304.00 L 538.34 304.00 C532.54,304.00 530.81,303.66 530.34,302.43 ZM 571.36 268.62 C576.49,266.48 579.00,262.58 579.00,256.77 C579.00,252.48 578.55,251.35 575.70,248.50 C572.80,245.60 571.57,245.13 565.45,244.58 C561.63,244.24 556.63,243.76 554.34,243.51 L 550.19 243.06 L 549.54 253.78 C549.18,259.68 548.80,265.40 548.69,266.50 C548.53,268.22 549.27,268.58 554.00,269.09 C563.83,270.14 568.01,270.02 571.36,268.62 Z"/>
</g>
</svg>